<svg xmlns="http://www.w3.org/2000/svg" fill="none" viewBox="0 0 24 24" stroke-width="1.5" stroke="currentColor" class="w-6 h-6">
  <path stroke-linecap="round" stroke-linejoin="round" d="M8.25 21v-4.875c0-.621.504-1.125 1.125-1.125h2.25c.621 0 1.125.504 1.125 1.125V21m0 0h4.5V3.545M12.75 21h7.5V10.75M2.25 21h1.5m18 0h-18M2.25 9l4.5-1.636M18.75 3l-1.5.545m0 6.205l3 1m1.5.5l-1.5-.5M6.75 7.5V3m-3.75 9.75h10.5a2.25 2.25 0 002.25-2.25V6.75a2.25 2.25 0 00-2.25-2.25H6.75A2.25 2.25 0 004.5 6.75v10.5a2.25 2.25 0 002.25 2.25z" />
</svg>



