<svg xmlns="http://www.w3.org/2000/svg" class="size-6" viewBox="0 0 24 24"><path fill="currentColor" d="M22 7h-7V5h7v2zm1.726 10c-.442 1.297-2.029 3-5.101 3c-3.074 0-5.564-1.729-5.564-5.675c0-3.91 2.466-5.92 5.466-5.92c3.004 0 5.089 1.984 5.089 5.539c0 2.661-1.179 4.984-2.454 5.658L16.794 24C18.25 24 22 21.984 22 19.077C22.001 18.621 22.001 18.161 22.001 17.7c0-.143.001-.285.001-.427L23.726 17zM7.504 9.199c.166 1.6 1.156 3.093 2.861 3.093c1.72 0 2.89-1.49 2.89-3.093c0-1.602-1.17-3.093-2.89-3.093c-1.705 0-2.695 1.493-2.861 3.093zM7.5 15.041c0-1.599 1.094-2.98 2.786-2.98c1.694 0 2.694 1.381 2.694 2.98c0 1.599-1 2.98-2.694 2.98C8.594 18.021 7.5 16.64 7.5 15.041zM0 5h7v1.5H0V5zm0 9h7v1.5H0v-1.5z"/></svg> 