<svg xmlns="http://www.w3.org/2000/svg" class="size-6" viewBox="0 0 24 24"><path fill="currentColor" d="M12 0C5.373 0 0 5.373 0 12s5.373 12 12 12s12-5.373 12-12S18.627 0 12 0zm9.75 7.568c-.883.392-1.816.668-2.75.847c.34-.408.729-.951 1.035-1.458c.306-.507.567-1.05.567-1.05s.306.306.148.661zM12 2.25c2.25 0 4.25.75 5.75 2.25c-.306.507-.729 1.05-1.035 1.458c-.408.507-.816.951-1.156 1.359c-1.816-.306-3.816-.306-5.632 0c-.34-.408-.748-.852-1.156-1.359c-.306-.408-.729-.951-1.035-1.458C7.75 3 9.75 2.25 12 2.25zM6.75 3.75c.306.507.729 1.05 1.035 1.458c.408.507.816.951 1.156 1.359c-1.816.306-3.816.306-5.632 0c-.34-.408-.748-.852-1.156-1.359c-.306-.408-.729-.951-1.035-1.458C2.75 4.5 4.75 3.75 6.75 3.75zM2.25 12c0-2.25.75-4.25 2.25-5.75c-.306.507-.729 1.05-1.035 1.458c-.408.507-.816.951-1.156 1.359c-1.816.306-3.816.306-5.632 0c-.34-.408-.748-.852-1.156-1.359c-.306-.408-.729-.951-1.035-1.458C.75 7.75 0 9.75 0 12s.75 4.25 2.25 5.75c.306-.507.729-1.05 1.035-1.458c.408-.507.816-.951 1.156-1.359c1.816.306 3.816.306 5.632 0c.34.408.748.852 1.156 1.359c.306.408.729.951 1.035 1.458C2.25 16.25 2.25 14.25 2.25 12zM12 21.75c-2.25 0-4.25-.75-5.75-2.25c.306-.507.729-1.05 1.035-1.458c.408-.507.816-.951 1.156-1.359c1.816.306 3.816.306 5.632 0c.34.408.748.852 1.156 1.359c.306.408.729.951 1.035 1.458C16.25 19.5 14.25 20.25 12 20.25s-4.25-.75-5.75-2.25c.306-.507.729-1.05 1.035-1.458c.408-.507.816-.951 1.156-1.359c1.816-.306 3.816-.306 5.632 0c.34.408.748.852 1.156 1.359c.306.408.729.951 1.035 1.458C16.25 19.5 14.25 20.25 12 20.25z"/></svg> 