<svg xmlns="http://www.w3.org/2000/svg" class="size-6" viewBox="0 0 24 24"><path fill="currentColor" d="M12.017 0C5.396 0 .029 5.367.029 11.987c0 5.079 3.158 9.417 7.618 11.174c-.105-.949-.199-2.403.041-3.439c.219-.937 1.406-5.957 1.406-5.957s-.359-.72-.359-1.781c0-1.663.967-2.911 2.168-2.911c1.024 0 1.518.769 1.518 1.688c0 1.029-.653 2.567-.992 3.992c-.285 1.193.6 2.165 1.775 2.165c2.128 0 3.768-2.245 3.768-5.487c0-2.861-2.063-4.869-5.008-4.869c-3.41 0-5.409 2.562-5.409 5.199c0 1.033.394 2.143.889 2.741c.099.12.112.225.085.345c-.09.375-.293 1.199-.334 1.363c-.053.225-.172.271-.402.165c-1.495-.69-2.433-2.878-2.433-4.646c0-3.776 2.748-7.252 7.92-7.252c4.158 0 7.392 2.967 7.392 6.923c0 4.135-2.607 7.462-6.233 7.462c-1.214 0-2.357-.629-2.746-1.378l-.748 2.853c-.271 1.043-1.002 2.35-1.492 3.146C9.57 23.812 10.763 24.009 12.017 24c6.624 0 11.99-5.367 11.99-11.988C24.007 5.367 18.641.001 12.017.001z"/></svg> 