<svg xmlns="http://www.w3.org/2000/svg" class="size-6" viewBox="0 0 24 24"><path fill="currentColor" d="M12 0A12 12 0 0 0 0 12a12 12 0 0 0 12 12a12 12 0 0 0 12-12A12 12 0 0 0 12 0zm5.01 4.744c.688 0 1.25.561 1.25 1.249a1.25 1.25 0 0 1-2.498.056l-2.597-.547a.8.8 0 0 0-.88.88l.547 2.597a1.25 1.25 0 0 1-1.249 1.25a1.25 1.25 0 0 1-1.249-1.25l.547-2.597a.8.8 0 0 0-.88-.88l-2.597.547a1.25 1.25 0 0 1-1.249-1.25a1.25 1.25 0 0 1 1.249-1.249l2.597.547a.8.8 0 0 0 .88-.88l-.547-2.597a1.25 1.25 0 0 1 1.249-1.25a1.25 1.25 0 0 1 1.249 1.25l-.547 2.597a.8.8 0 0 0 .88.88l2.597-.547a1.25 1.25 0 0 1 1.249 1.249zM12 7.5a4.5 4.5 0 0 0-4.5 4.5a4.5 4.5 0 0 0 4.5 4.5a4.5 4.5 0 0 0 4.5-4.5a4.5 4.5 0 0 0-4.5-4.5z"/></svg> 