<svg xmlns="http://www.w3.org/2000/svg" class="size-6" viewBox="0 0 24 24"><path fill="currentColor" d="M6.194 14.644c0 1.16-.943 2.107-2.107 2.107c-1.164 0-2.107-.947-2.107-2.107c0-1.16.943-2.106 2.107-2.106h2.107zm1.061 0c0-1.16.943-2.106 2.107-2.106c1.164 0 2.107.946 2.107 2.106v5.356c0 1.16-.943 2.107-2.107 2.107c-1.164 0-2.107-.947-2.107-2.107zm2.107-10.712c-1.164 0-2.107-.946-2.107-2.106c0-1.16.943-2.107 2.107-2.107c1.164 0 2.107.947 2.107 2.107v2.106zm0 1.061c0 1.16-.943 2.107-2.107 2.107c-1.164 0-2.107-.947-2.107-2.107c0-1.164.943-2.107 2.107-2.107h5.356c1.164 0 2.107.943 2.107 2.107c0 1.164-.943 2.107-2.107 2.107zm10.712 2.107c1.164 0 2.107.947 2.107 2.107c0 1.164-.943 2.107-2.107 2.107c-1.164 0-2.107-.943-2.107-2.107c0-1.16.943-2.107 2.107-2.107zm-1.061 0c0-1.164.943-2.107 2.107-2.107c1.164 0 2.107.943 2.107 2.107c0 1.164-.943 2.107-2.107 2.107h-5.356c-1.164 0-2.107-.943-2.107-2.107c0-1.164.943-2.107 2.107-2.107zm-2.107 10.712c1.164 0 2.107.946 2.107 2.106c0 1.16-.943 2.107-2.107 2.107c-1.164 0-2.107-.947-2.107-2.107v-2.106zm0-1.061c0-1.16.943-2.107 2.107-2.107c1.164 0 2.107.947 2.107 2.107c0 1.164-.943 2.107-2.107 2.107c-1.164 0-2.107-.943-2.107-2.107c0-1.16.943-2.107 2.107-2.107z"/></svg> 