<svg xmlns="http://www.w3.org/2000/svg" class="size-6" viewBox="0 0 24 24"><path fill="currentColor" d="M23.977 6.416c-.105 2.338-1.739 5.543-4.894 9.609c-3.151 4.065-5.777 6.1-7.862 6.1c-1.485 0-2.744-1.369-3.776-4.104c-.687-2.515-1.38-5.035-2.078-7.56c-.76-2.739-1.576-4.109-2.446-4.109c-.18 0-.806.378-1.881 1.132L0 7.76c1.185-1.044 2.351-2.084 3.501-3.128C5.08 2.362 6.266 1.419 7.39 1.419c.98 0 1.773.928 2.377 2.785c.604 1.857 1.018 3.297 1.241 4.323c.687 3.169 1.144 5.019 1.369 5.548c.76 3.651 1.596 5.477 2.508 5.477c.706 0 1.827-1.244 3.368-3.729c1.541-2.485 2.312-4.577 2.312-6.276c0-1.098-.298-1.988-.894-2.67c.596-.76 1.335-1.604 2.214-2.535c.879-.931 1.532-1.604 1.96-2.019c.428-.415.773-.623 1.036-.623c.18 0 .33.045.451.135c.121.09.181.225.181.405z"/></svg> 